<?xml version="1.0" encoding="UTF-8"?>
<svg enable-background="new 0 0 24 24" version="1.1" viewBox="0 0 24 24" xmlns:svg="http://www.w3.org/2000/svg" xmlns="http://www.w3.org/2000/svg" xmlns:xlink="http://www.w3.org/1999/xlink">
    <path d="m18.122 11.887c-1.1804-1.1423-3.0533-1.1448-4.2368-0.00586l-1.5898 1.5801c-0.39155 0.38922-0.39343 1.0222-0.00421 1.4137 4.3e-4 4.3e-4 8.5e-4 8.6e-4 0.00128 0.00129l4.6748 4.6846 0.17468 0.43949h1.8585c1.6561-0.00181 2.9982-1.3439 3-3v-0.83008c-9e-5 -0.26567-0.10585-0.52039-0.29395-0.708l-3.5845-3.5752z" fill="#fbb8c7" />
    <path d="m5 20h14c0.355-0.00278 0.70662-0.06923 1.0382-0.19617l-9.9166-9.9171c-1.1806-1.143-3.0545-1.1451-4.2378-0.00488l-3.5898 3.5801c-0.18812 0.1876-0.2939 0.44232-0.294 0.708v2.8301c0.00181 1.6561 1.3439 2.9982 3 3z" fill="#f74f75" />
    <path d="m19 4h-14c-1.6561 0.00183-2.9982 1.3439-3 3v7.1699c1.2e-4 -0.26569 0.1059-0.52039 0.29401-0.70801l3.5898-3.5801c1.1833-1.1403 3.0571-1.1381 4.2378 0.00488l2.8758 2.876 0.88733-0.8819c1.1835-1.139 3.0565-1.1364 4.2368 0.00586l3.5845 3.5752c0.18811 0.18762 0.29388 0.44232 0.29395 0.70801v-9.1699c-0.00183-1.6561-1.3439-2.9982-3-3z" fill="#fa95ac" />
</svg>
