<?xml version="1.0" encoding="UTF-8" standalone="no"?>
<svg viewBox="0 0 112.165 112.165" version="1.0" xmlns:svg="http://www.w3.org/2000/svg" xmlns="http://www.w3.org/2000/svg" xmlns:xlink="http://www.w3.org/1999/xlink">
    <g transform="translate(-43.786,-28.369)">
        <path fill="#FFFFFF" d="M99.895,28.369c-30.973,0-56.08,25.108-56.08,56.079c0,30.977,25.107,56.088,56.08,56.088 c30.976,0,56.084-25.111,56.084-56.088C155.979,53.478,130.87,28.369,99.895,28.369z M130.141,60.829 c-2.597,0.09-4.39-1.462-4.471-3.818c-0.029-0.864,0.194-1.62,0.786-2.504c0.579-1.134,0.703-1.264,0.688-1.757 c-0.053-1.485-2.295-1.541-2.909-1.512c-8.419,0.278-10.638,11.64-12.437,20.878l-0.881,4.872 c4.848,0.709,8.289-0.165,10.209-1.407c2.703-1.755-0.756-3.558-0.32-5.553c0.442-2.034,2.292-3.016,3.763-3.057 c2.058-0.051,3.526,2.084,3.479,4.251c-0.073,3.582-4.825,8.503-14.329,8.302c-1.158-0.027-2.225-0.108-3.217-0.228l-1.793,9.897 c-1.605,7.496-3.74,17.736-11.371,26.672c-6.555,7.792-13.209,9.004-16.188,9.104c-5.574,0.188-9.27-2.783-9.4-6.75 c-0.129-3.84,3.268-5.936,5.496-6.011c2.975-0.099,5.033,2.056,5.111,4.54c0.076,2.104-1.021,2.76-1.748,3.156 c-0.484,0.39-1.215,0.787-1.188,1.652c0.018,0.372,0.416,1.224,1.654,1.186c2.355-0.083,3.92-1.248,5.014-2.026 c5.43-4.525,7.52-12.409,10.256-26.761l0.574-3.481c0.934-4.667,1.969-9.872,3.547-15.059c-3.828-2.882-6.121-6.454-11.271-7.851 c-3.527-0.958-5.68-0.145-7.191,1.768c-1.791,2.266-1.197,5.214,0.533,6.942l2.859,3.163c3.506,4.05,5.422,7.202,4.701,11.441 c-1.145,6.768-9.207,11.961-18.742,9.026c-8.137-2.507-9.656-8.268-8.68-11.441c0.861-2.793,3.08-3.321,5.252-2.655 c2.324,0.719,3.234,3.544,2.57,5.713c-0.074,0.232-0.193,0.619-0.438,1.14c-0.27,0.597-0.77,1.122-0.984,1.821 c-0.523,1.703,1.812,2.914,3.439,3.413c3.641,1.118,7.191-0.784,8.092-3.731c0.838-2.706-0.875-4.595-1.584-5.319l-3.447-3.691 c-1.576-1.756-5.047-6.653-3.354-12.151c0.652-2.121,2.027-4.37,4.02-5.859c4.211-3.137,8.787-3.652,13.146-2.399 c5.641,1.622,8.35,5.352,11.863,8.233c1.967-5.769,4.691-11.415,8.791-16.18c3.703-4.34,8.676-7.484,14.373-7.68 c5.692-0.188,9.995,2.393,10.137,6.477C134.61,57.333,133.613,60.713,130.141,60.829z" />
    </g>
</svg>
